<?xml version="1.0" encoding="UTF-8" standalone="no"?>
<!-- Created with Inkscape (http://www.inkscape.org/) -->

<svg
   width="17in"
   height="11in"
   viewBox="0 0 431.8 279.4"
   version="1.1"
   id="svg5"
   inkscape:version="1.1.2 (b8e25be833, 2022-02-05)"
   sodipodi:docname="Bellows_Ribs.svg"
   xmlns:inkscape="http://www.inkscape.org/namespaces/inkscape"
   xmlns:sodipodi="http://sodipodi.sourceforge.net/DTD/sodipodi-0.dtd"
   xmlns="http://www.w3.org/2000/svg"
   xmlns:svg="http://www.w3.org/2000/svg">
  <sodipodi:namedview
     id="namedview7"
     pagecolor="#ffffff"
     bordercolor="#999999"
     borderopacity="1"
     inkscape:pageshadow="0"
     inkscape:pageopacity="0"
     inkscape:pagecheckerboard="0"
     inkscape:document-units="in"
     showgrid="false"
     showguides="true"
     inkscape:guide-bbox="true"
     inkscape:zoom="0.68443627"
     inkscape:cx="815.86218"
     inkscape:cy="527.59232"
     inkscape:window-width="1920"
     inkscape:window-height="1001"
     inkscape:window-x="-9"
     inkscape:window-y="-9"
     inkscape:window-maximized="1"
     inkscape:current-layer="layer1"
     width="300mm"
     units="in" />
  <defs
     id="defs2" />
  <g
     inkscape:label="Layer 1"
     inkscape:groupmode="layer"
     id="layer1">
    <g
       id="g5797"
       transform="translate(-3.905e-4,-9.9992545)">
      <path
         id="path2440"
         style="fill:none;stroke:#000000;stroke-width:0.264583px;stroke-linecap:butt;stroke-linejoin:miter;stroke-opacity:1"
         d="m 86.419922,18.449219 c 26.320308,0 52.640628,0 78.960938,0 2.5,-2.5 5,-5 7.5,-7.5 -31.32031,0 -62.64063,0 -93.960938,0 2.5,2.5 5,5 7.5,7.5 z" />
      <path
         id="path2777"
         style="fill:none;stroke:#000000;stroke-width:0.264583px;stroke-linecap:butt;stroke-linejoin:miter;stroke-opacity:1"
         d="m 168.91992,18.449219 c 31.32031,0 62.64063,0 93.96094,0 -2.5,-2.5 -5,-5 -7.5,-7.5 -26.32031,0 -52.64063,0 -78.96094,0 -2.5,2.5 -5,5 -7.5,7.5 z" />
      <path
         id="path2779"
         style="fill:none;stroke:#000000;stroke-width:0.264583px;stroke-linecap:butt;stroke-linejoin:miter;stroke-opacity:1"
         d="m 266.41992,18.449219 c 26.32031,0 52.64063,0 78.96094,0 2.5,-2.5 5,-5 7.5,-7.5 -31.32031,0 -62.64063,0 -93.96094,0 2.5,2.5 5,5 7.5,7.5 z" />
      <path
         id="path3759"
         style="fill:none;stroke:#000000;stroke-width:0.264583px;stroke-linecap:butt;stroke-linejoin:miter;stroke-opacity:1"
         d="m 348.91992,18.449219 c 15.24349,0 30.48698,0 45.73047,0 0,-2.5 0,-5 0,-7.5 -12.74349,0 -25.48698,0 -38.23047,0 -2.5,2.5 -5,5 -7.5,7.5 z" />
      <path
         id="path4025"
         style="fill:none;stroke:#000000;stroke-width:0.264583px;stroke-linecap:butt;stroke-linejoin:miter;stroke-opacity:1"
         d="m 37.150391,18.449219 c 15.243489,0 30.486979,0 45.730468,0 -2.5,-2.5 -5,-5 -7.5,-7.5 -12.743489,0 -25.486979,0 -38.230468,0 0,2.5 0,5 0,7.5 z" />
      <path
         id="path4384"
         style="fill:none;stroke:#000000;stroke-width:0.264583px;stroke-linecap:butt;stroke-linejoin:miter;stroke-opacity:1"
         d="m 78.919922,28.449219 c 31.320308,0 62.640628,0 93.960938,0 -2.5,-2.5 -5,-5 -7.5,-7.5 -26.32031,0 -52.64063,0 -78.960938,0 -2.5,2.5 -5,5 -7.5,7.5 z" />
      <path
         id="path4386"
         style="fill:none;stroke:#000000;stroke-width:0.264583px;stroke-linecap:butt;stroke-linejoin:miter;stroke-opacity:1"
         d="m 176.41992,28.449219 c 26.32031,0 52.64063,0 78.96094,0 2.5,-2.5 5,-5 7.5,-7.5 -31.32031,0 -62.64063,0 -93.96094,0 2.5,2.5 5,5 7.5,7.5 z" />
      <path
         id="path4388"
         style="fill:none;stroke:#000000;stroke-width:0.264583px;stroke-linecap:butt;stroke-linejoin:miter;stroke-opacity:1"
         d="m 258.91992,28.449219 c 31.32031,0 62.64063,0 93.96094,0 -2.5,-2.5 -5,-5 -7.5,-7.5 -26.32031,0 -52.64063,0 -78.96094,0 -2.5,2.5 -5,5 -7.5,7.5 z" />
      <path
         id="path4390"
         style="fill:none;stroke:#000000;stroke-width:0.264583px;stroke-linecap:butt;stroke-linejoin:miter;stroke-opacity:1"
         d="m 356.41992,28.449219 c 12.74349,0 25.48698,0 38.23047,0 0,-2.5 0,-5 0,-7.5 -15.24349,0 -30.48698,0 -45.73047,0 2.5,2.5 5,5 7.5,7.5 z" />
      <path
         id="path4392"
         style="fill:none;stroke:#000000;stroke-width:0.264583px;stroke-linecap:butt;stroke-linejoin:miter;stroke-opacity:1"
         d="m 37.150391,28.449219 c 12.743489,0 25.486979,0 38.230468,0 2.5,-2.5 5,-5 7.5,-7.5 -15.243489,0 -30.486979,0 -45.730468,0 0,2.5 0,5 0,7.5 z" />
      <path
         id="path4396"
         style="fill:none;stroke:#000000;stroke-width:0.264583px;stroke-linecap:butt;stroke-linejoin:miter;stroke-opacity:1"
         d="m 86.419922,38.449219 c 26.320308,0 52.640628,0 78.960938,0 2.5,-2.5 5,-5 7.5,-7.5 -31.32031,0 -62.64063,0 -93.960938,0 2.5,2.5 5,5 7.5,7.5 z" />
      <path
         id="path4398"
         style="fill:none;stroke:#000000;stroke-width:0.264583px;stroke-linecap:butt;stroke-linejoin:miter;stroke-opacity:1"
         d="m 168.91992,38.449219 c 31.32031,0 62.64063,0 93.96094,0 -2.5,-2.5 -5,-5 -7.5,-7.5 -26.32031,0 -52.64063,0 -78.96094,0 -2.5,2.5 -5,5 -7.5,7.5 z" />
      <path
         id="path4400"
         style="fill:none;stroke:#000000;stroke-width:0.264583px;stroke-linecap:butt;stroke-linejoin:miter;stroke-opacity:1"
         d="m 266.41992,38.449219 c 26.32031,0 52.64063,0 78.96094,0 2.5,-2.5 5,-5 7.5,-7.5 -31.32031,0 -62.64063,0 -93.96094,0 2.5,2.5 5,5 7.5,7.5 z" />
      <path
         id="path4402"
         style="fill:none;stroke:#000000;stroke-width:0.264583px;stroke-linecap:butt;stroke-linejoin:miter;stroke-opacity:1"
         d="m 348.91992,38.449219 c 15.24349,0 30.48698,0 45.73047,0 0,-2.5 0,-5 0,-7.5 -12.74349,0 -25.48698,0 -38.23047,0 -2.5,2.5 -5,5 -7.5,7.5 z" />
      <path
         id="path4404"
         style="fill:none;stroke:#000000;stroke-width:0.264583px;stroke-linecap:butt;stroke-linejoin:miter;stroke-opacity:1"
         d="m 37.150391,38.449219 c 15.243489,0 30.486979,0 45.730468,0 -2.5,-2.5 -5,-5 -7.5,-7.5 -12.743489,0 -25.486979,0 -38.230468,0 0,2.5 0,5 0,7.5 z" />
      <path
         id="path4408"
         style="fill:none;stroke:#000000;stroke-width:0.264583px;stroke-linecap:butt;stroke-linejoin:miter;stroke-opacity:1"
         d="m 78.919922,48.449219 c 31.320308,0 62.640628,0 93.960938,0 -2.5,-2.5 -5,-5 -7.5,-7.5 -26.32031,0 -52.64063,0 -78.960938,0 -2.5,2.5 -5,5 -7.5,7.5 z" />
      <path
         id="path4410"
         style="fill:none;stroke:#000000;stroke-width:0.264583px;stroke-linecap:butt;stroke-linejoin:miter;stroke-opacity:1"
         d="m 176.41992,48.449219 c 26.32031,0 52.64063,0 78.96094,0 2.5,-2.5 5,-5 7.5,-7.5 -31.32031,0 -62.64063,0 -93.96094,0 2.5,2.5 5,5 7.5,7.5 z" />
      <path
         id="path4412"
         style="fill:none;stroke:#000000;stroke-width:0.264583px;stroke-linecap:butt;stroke-linejoin:miter;stroke-opacity:1"
         d="m 258.91992,48.449219 c 31.32031,0 62.64063,0 93.96094,0 -2.5,-2.5 -5,-5 -7.5,-7.5 -26.32031,0 -52.64063,0 -78.96094,0 -2.5,2.5 -5,5 -7.5,7.5 z" />
      <path
         id="path4414"
         style="fill:none;stroke:#000000;stroke-width:0.264583px;stroke-linecap:butt;stroke-linejoin:miter;stroke-opacity:1"
         d="m 356.41992,48.449219 c 12.74349,0 25.48698,0 38.23047,0 0,-2.5 0,-5 0,-7.5 -15.24349,0 -30.48698,0 -45.73047,0 2.5,2.5 5,5 7.5,7.5 z" />
      <path
         id="path4416"
         style="fill:none;stroke:#000000;stroke-width:0.264583px;stroke-linecap:butt;stroke-linejoin:miter;stroke-opacity:1"
         d="m 37.150391,48.449219 c 12.743489,0 25.486979,0 38.230468,0 2.5,-2.5 5,-5 7.5,-7.5 -15.243489,0 -30.486979,0 -45.730468,0 0,2.5 0,5 0,7.5 z" />
      <path
         id="path4420"
         style="fill:none;stroke:#000000;stroke-width:0.264583px;stroke-linecap:butt;stroke-linejoin:miter;stroke-opacity:1"
         d="m 86.419922,58.449219 c 26.320308,0 52.640628,0 78.960938,0 2.5,-2.5 5,-5 7.5,-7.5 -31.32031,0 -62.64063,0 -93.960938,0 2.5,2.5 5,5 7.5,7.5 z" />
      <path
         id="path4422"
         style="fill:none;stroke:#000000;stroke-width:0.264583px;stroke-linecap:butt;stroke-linejoin:miter;stroke-opacity:1"
         d="m 168.91992,58.449219 c 31.32031,0 62.64063,0 93.96094,0 -2.5,-2.5 -5,-5 -7.5,-7.5 -26.32031,0 -52.64063,0 -78.96094,0 -2.5,2.5 -5,5 -7.5,7.5 z" />
      <path
         id="path4424"
         style="fill:none;stroke:#000000;stroke-width:0.264583px;stroke-linecap:butt;stroke-linejoin:miter;stroke-opacity:1"
         d="m 266.41992,58.449219 c 26.32031,0 52.64063,0 78.96094,0 2.5,-2.5 5,-5 7.5,-7.5 -31.32031,0 -62.64063,0 -93.96094,0 2.5,2.5 5,5 7.5,7.5 z" />
      <path
         id="path4426"
         style="fill:none;stroke:#000000;stroke-width:0.264583px;stroke-linecap:butt;stroke-linejoin:miter;stroke-opacity:1"
         d="m 348.91992,58.449219 c 15.24349,0 30.48698,0 45.73047,0 0,-2.5 0,-5 0,-7.5 -12.74349,0 -25.48698,0 -38.23047,0 -2.5,2.5 -5,5 -7.5,7.5 z" />
      <path
         id="path4428"
         style="fill:none;stroke:#000000;stroke-width:0.264583px;stroke-linecap:butt;stroke-linejoin:miter;stroke-opacity:1"
         d="m 37.150391,58.449219 c 15.243489,0 30.486979,0 45.730468,0 -2.5,-2.5 -5,-5 -7.5,-7.5 -12.743489,0 -25.486979,0 -38.230468,0 0,2.5 0,5 0,7.5 z" />
      <path
         id="path4432"
         style="fill:none;stroke:#000000;stroke-width:0.264583px;stroke-linecap:butt;stroke-linejoin:miter;stroke-opacity:1"
         d="m 78.919922,68.449219 c 31.320308,0 62.640628,0 93.960938,0 -2.5,-2.5 -5,-5 -7.5,-7.5 -26.32031,0 -52.64063,0 -78.960938,0 -2.5,2.5 -5,5 -7.5,7.5 z" />
      <path
         id="path4434"
         style="fill:none;stroke:#000000;stroke-width:0.264583px;stroke-linecap:butt;stroke-linejoin:miter;stroke-opacity:1"
         d="m 176.41992,68.449219 c 26.32031,0 52.64063,0 78.96094,0 2.5,-2.5 5,-5 7.5,-7.5 -31.32031,0 -62.64063,0 -93.96094,0 2.5,2.5 5,5 7.5,7.5 z" />
      <path
         id="path4436"
         style="fill:none;stroke:#000000;stroke-width:0.264583px;stroke-linecap:butt;stroke-linejoin:miter;stroke-opacity:1"
         d="m 258.91992,68.449219 c 31.32031,0 62.64063,0 93.96094,0 -2.5,-2.5 -5,-5 -7.5,-7.5 -26.32031,0 -52.64063,0 -78.96094,0 -2.5,2.5 -5,5 -7.5,7.5 z" />
      <path
         id="path4438"
         style="fill:none;stroke:#000000;stroke-width:0.264583px;stroke-linecap:butt;stroke-linejoin:miter;stroke-opacity:1"
         d="m 356.41992,68.449219 c 12.74349,0 25.48698,0 38.23047,0 0,-2.5 0,-5 0,-7.5 -15.24349,0 -30.48698,0 -45.73047,0 2.5,2.5 5,5 7.5,7.5 z" />
      <path
         id="path4440"
         style="fill:none;stroke:#000000;stroke-width:0.264583px;stroke-linecap:butt;stroke-linejoin:miter;stroke-opacity:1"
         d="m 37.150391,68.449219 c 12.743489,0 25.486979,0 38.230468,0 2.5,-2.5 5,-5 7.5,-7.5 -15.243489,0 -30.486979,0 -45.730468,0 0,2.5 0,5 0,7.5 z" />
      <path
         id="path4444"
         style="fill:none;stroke:#000000;stroke-width:0.264583px;stroke-linecap:butt;stroke-linejoin:miter;stroke-opacity:1"
         d="m 86.419922,78.449219 c 26.320308,0 52.640628,0 78.960938,0 2.5,-2.5 5,-5 7.5,-7.5 -31.32031,0 -62.64063,0 -93.960938,0 2.5,2.5 5,5 7.5,7.5 z" />
      <path
         id="path4446"
         style="fill:none;stroke:#000000;stroke-width:0.264583px;stroke-linecap:butt;stroke-linejoin:miter;stroke-opacity:1"
         d="m 168.91992,78.449219 c 31.32031,0 62.64063,0 93.96094,0 -2.5,-2.5 -5,-5 -7.5,-7.5 -26.32031,0 -52.64063,0 -78.96094,0 -2.5,2.5 -5,5 -7.5,7.5 z" />
      <path
         id="path4448"
         style="fill:none;stroke:#000000;stroke-width:0.264583px;stroke-linecap:butt;stroke-linejoin:miter;stroke-opacity:1"
         d="m 266.41992,78.449219 c 26.32031,0 52.64063,0 78.96094,0 2.5,-2.5 5,-5 7.5,-7.5 -31.32031,0 -62.64063,0 -93.96094,0 2.5,2.5 5,5 7.5,7.5 z" />
      <path
         id="path4450"
         style="fill:none;stroke:#000000;stroke-width:0.264583px;stroke-linecap:butt;stroke-linejoin:miter;stroke-opacity:1"
         d="m 348.91992,78.449219 c 15.24349,0 30.48698,0 45.73047,0 0,-2.5 0,-5 0,-7.5 -12.74349,0 -25.48698,0 -38.23047,0 -2.5,2.5 -5,5 -7.5,7.5 z" />
      <path
         id="path4452"
         style="fill:none;stroke:#000000;stroke-width:0.264583px;stroke-linecap:butt;stroke-linejoin:miter;stroke-opacity:1"
         d="m 37.150391,78.449219 c 15.243489,0 30.486979,0 45.730468,0 -2.5,-2.5 -5,-5 -7.5,-7.5 -12.743489,0 -25.486979,0 -38.230468,0 0,2.5 0,5 0,7.5 z" />
      <path
         id="path4456"
         style="fill:none;stroke:#000000;stroke-width:0.264583px;stroke-linecap:butt;stroke-linejoin:miter;stroke-opacity:1"
         d="m 78.919922,88.449219 c 31.320308,0 62.640628,0 93.960938,0 -2.5,-2.5 -5,-5 -7.5,-7.5 -26.32031,0 -52.64063,0 -78.960938,0 -2.5,2.5 -5,5 -7.5,7.5 z" />
      <path
         id="path4458"
         style="fill:none;stroke:#000000;stroke-width:0.264583px;stroke-linecap:butt;stroke-linejoin:miter;stroke-opacity:1"
         d="m 176.41992,88.449219 c 26.32031,0 52.64063,0 78.96094,0 2.5,-2.5 5,-5 7.5,-7.5 -31.32031,0 -62.64063,0 -93.96094,0 2.5,2.5 5,5 7.5,7.5 z" />
      <path
         id="path4460"
         style="fill:none;stroke:#000000;stroke-width:0.264583px;stroke-linecap:butt;stroke-linejoin:miter;stroke-opacity:1"
         d="m 258.91992,88.449219 c 31.32031,0 62.64063,0 93.96094,0 -2.5,-2.5 -5,-5 -7.5,-7.5 -26.32031,0 -52.64063,0 -78.96094,0 -2.5,2.5 -5,5 -7.5,7.5 z" />
      <path
         id="path4462"
         style="fill:none;stroke:#000000;stroke-width:0.264583px;stroke-linecap:butt;stroke-linejoin:miter;stroke-opacity:1"
         d="m 356.41992,88.449219 c 12.74349,0 25.48698,0 38.23047,0 0,-2.5 0,-5 0,-7.5 -15.24349,0 -30.48698,0 -45.73047,0 2.5,2.5 5,5 7.5,7.5 z" />
      <path
         id="path4464"
         style="fill:none;stroke:#000000;stroke-width:0.264583px;stroke-linecap:butt;stroke-linejoin:miter;stroke-opacity:1"
         d="m 37.150391,88.449219 c 12.743489,0 25.486979,0 38.230468,0 2.5,-2.5 5,-5 7.5,-7.5 -15.243489,0 -30.486979,0 -45.730468,0 0,2.5 0,5 0,7.5 z" />
      <path
         id="path4468"
         style="fill:none;stroke:#000000;stroke-width:0.264583px;stroke-linecap:butt;stroke-linejoin:miter;stroke-opacity:1"
         d="m 86.419922,98.449219 c 26.320308,0 52.640628,0 78.960938,0 2.5,-2.5 5,-5 7.5,-7.5 -31.32031,0 -62.64063,0 -93.960938,0 2.5,2.5 5,5 7.5,7.5 z" />
      <path
         id="path4470"
         style="fill:none;stroke:#000000;stroke-width:0.264583px;stroke-linecap:butt;stroke-linejoin:miter;stroke-opacity:1"
         d="m 168.91992,98.449219 c 31.32031,0 62.64063,0 93.96094,0 -2.5,-2.5 -5,-5 -7.5,-7.5 -26.32031,0 -52.64063,0 -78.96094,0 -2.5,2.5 -5,5 -7.5,7.5 z" />
      <path
         id="path4472"
         style="fill:none;stroke:#000000;stroke-width:0.264583px;stroke-linecap:butt;stroke-linejoin:miter;stroke-opacity:1"
         d="m 266.41992,98.449219 c 26.32031,0 52.64063,0 78.96094,0 2.5,-2.5 5,-5 7.5,-7.5 -31.32031,0 -62.64063,0 -93.96094,0 2.5,2.5 5,5 7.5,7.5 z" />
      <path
         id="path4474"
         style="fill:none;stroke:#000000;stroke-width:0.264583px;stroke-linecap:butt;stroke-linejoin:miter;stroke-opacity:1"
         d="m 348.91992,98.449219 c 15.24349,0 30.48698,0 45.73047,0 0,-2.5 0,-5 0,-7.5 -12.74349,0 -25.48698,0 -38.23047,0 -2.5,2.5 -5,5 -7.5,7.5 z" />
      <path
         id="path4476"
         style="fill:none;stroke:#000000;stroke-width:0.264583px;stroke-linecap:butt;stroke-linejoin:miter;stroke-opacity:1"
         d="m 37.150391,98.449219 c 15.243489,0 30.486979,0 45.730468,0 -2.5,-2.5 -5,-5 -7.5,-7.5 -12.743489,0 -25.486979,0 -38.230468,0 0,2.5 0,5 0,7.5 z" />
      <path
         id="path4480"
         style="fill:none;stroke:#000000;stroke-width:0.264583px;stroke-linecap:butt;stroke-linejoin:miter;stroke-opacity:1"
         d="m 78.919922,108.44922 c 31.320308,0 62.640628,0 93.960938,0 -2.5,-2.5 -5,-5 -7.5,-7.5 -26.32031,0 -52.64063,0 -78.960938,0 -2.5,2.5 -5,5 -7.5,7.5 z" />
      <path
         id="path4482"
         style="fill:none;stroke:#000000;stroke-width:0.264583px;stroke-linecap:butt;stroke-linejoin:miter;stroke-opacity:1"
         d="m 176.41992,108.44922 c 26.32031,0 52.64063,0 78.96094,0 2.5,-2.5 5,-5 7.5,-7.5 -31.32031,0 -62.64063,0 -93.96094,0 2.5,2.5 5,5 7.5,7.5 z" />
      <path
         id="path4484"
         style="fill:none;stroke:#000000;stroke-width:0.264583px;stroke-linecap:butt;stroke-linejoin:miter;stroke-opacity:1"
         d="m 258.91992,108.44922 c 31.32031,0 62.64063,0 93.96094,0 -2.5,-2.5 -5,-5 -7.5,-7.5 -26.32031,0 -52.64063,0 -78.96094,0 -2.5,2.5 -5,5 -7.5,7.5 z" />
      <path
         id="path4486"
         style="fill:none;stroke:#000000;stroke-width:0.264583px;stroke-linecap:butt;stroke-linejoin:miter;stroke-opacity:1"
         d="m 356.41992,108.44922 c 12.74349,0 25.48698,0 38.23047,0 0,-2.5 0,-5 0,-7.5 -15.24349,0 -30.48698,0 -45.73047,0 2.5,2.5 5,5 7.5,7.5 z" />
      <path
         id="path4488"
         style="fill:none;stroke:#000000;stroke-width:0.264583px;stroke-linecap:butt;stroke-linejoin:miter;stroke-opacity:1"
         d="m 37.150391,108.44922 c 12.743489,0 25.486979,0 38.230468,0 2.5,-2.5 5,-5 7.5,-7.5 -15.243489,0 -30.486979,0 -45.730468,0 0,2.5 0,5 0,7.5 z" />
      <path
         id="path4492"
         style="fill:none;stroke:#000000;stroke-width:0.264583px;stroke-linecap:butt;stroke-linejoin:miter;stroke-opacity:1"
         d="m 86.419922,118.44922 c 26.320308,0 52.640628,0 78.960938,0 2.5,-2.5 5,-5 7.5,-7.5 -31.32031,0 -62.64063,0 -93.960938,0 2.5,2.5 5,5 7.5,7.5 z" />
      <path
         id="path4494"
         style="fill:none;stroke:#000000;stroke-width:0.264583px;stroke-linecap:butt;stroke-linejoin:miter;stroke-opacity:1"
         d="m 168.91992,118.44922 c 31.32031,0 62.64063,0 93.96094,0 -2.5,-2.5 -5,-5 -7.5,-7.5 -26.32031,0 -52.64063,0 -78.96094,0 -2.5,2.5 -5,5 -7.5,7.5 z" />
      <path
         id="path4496"
         style="fill:none;stroke:#000000;stroke-width:0.264583px;stroke-linecap:butt;stroke-linejoin:miter;stroke-opacity:1"
         d="m 266.41992,118.44922 c 26.32031,0 52.64063,0 78.96094,0 2.5,-2.5 5,-5 7.5,-7.5 -31.32031,0 -62.64063,0 -93.96094,0 2.5,2.5 5,5 7.5,7.5 z" />
      <path
         id="path4498"
         style="fill:none;stroke:#000000;stroke-width:0.264583px;stroke-linecap:butt;stroke-linejoin:miter;stroke-opacity:1"
         d="m 348.91992,118.44922 c 15.24349,0 30.48698,0 45.73047,0 0,-2.5 0,-5 0,-7.5 -12.74349,0 -25.48698,0 -38.23047,0 -2.5,2.5 -5,5 -7.5,7.5 z" />
      <path
         id="path4500"
         style="fill:none;stroke:#000000;stroke-width:0.264583px;stroke-linecap:butt;stroke-linejoin:miter;stroke-opacity:1"
         d="m 37.150391,118.44922 c 15.243489,0 30.486979,0 45.730468,0 -2.5,-2.5 -5,-5 -7.5,-7.5 -12.743489,0 -25.486979,0 -38.230468,0 0,2.5 0,5 0,7.5 z" />
      <path
         id="path4504"
         style="fill:none;stroke:#000000;stroke-width:0.264583px;stroke-linecap:butt;stroke-linejoin:miter;stroke-opacity:1"
         d="m 78.919922,128.44922 c 31.320308,0 62.640628,0 93.960938,0 -2.5,-2.5 -5,-5 -7.5,-7.5 -26.32031,0 -52.64063,0 -78.960938,0 -2.5,2.5 -5,5 -7.5,7.5 z" />
      <path
         id="path4506"
         style="fill:none;stroke:#000000;stroke-width:0.264583px;stroke-linecap:butt;stroke-linejoin:miter;stroke-opacity:1"
         d="m 176.41992,128.44922 c 26.32031,0 52.64063,0 78.96094,0 2.5,-2.5 5,-5 7.5,-7.5 -31.32031,0 -62.64063,0 -93.96094,0 2.5,2.5 5,5 7.5,7.5 z" />
      <path
         id="path4508"
         style="fill:none;stroke:#000000;stroke-width:0.264583px;stroke-linecap:butt;stroke-linejoin:miter;stroke-opacity:1"
         d="m 258.91992,128.44922 c 31.32031,0 62.64063,0 93.96094,0 -2.5,-2.5 -5,-5 -7.5,-7.5 -26.32031,0 -52.64063,0 -78.96094,0 -2.5,2.5 -5,5 -7.5,7.5 z" />
      <path
         id="path4510"
         style="fill:none;stroke:#000000;stroke-width:0.264583px;stroke-linecap:butt;stroke-linejoin:miter;stroke-opacity:1"
         d="m 356.41992,128.44922 c 12.74349,0 25.48698,0 38.23047,0 0,-2.5 0,-5 0,-7.5 -15.24349,0 -30.48698,0 -45.73047,0 2.5,2.5 5,5 7.5,7.5 z" />
      <path
         id="path4512"
         style="fill:none;stroke:#000000;stroke-width:0.264583px;stroke-linecap:butt;stroke-linejoin:miter;stroke-opacity:1"
         d="m 37.150391,128.44922 c 12.743489,0 25.486979,0 38.230468,0 2.5,-2.5 5,-5 7.5,-7.5 -15.243489,0 -30.486979,0 -45.730468,0 0,2.5 0,5 0,7.5 z" />
      <path
         id="path4516"
         style="fill:none;stroke:#000000;stroke-width:0.264583px;stroke-linecap:butt;stroke-linejoin:miter;stroke-opacity:1"
         d="m 86.419922,138.44922 c 26.320308,0 52.640628,0 78.960938,0 2.5,-2.5 5,-5 7.5,-7.5 -31.32031,0 -62.64063,0 -93.960938,0 2.5,2.5 5,5 7.5,7.5 z" />
      <path
         id="path4518"
         style="fill:none;stroke:#000000;stroke-width:0.264583px;stroke-linecap:butt;stroke-linejoin:miter;stroke-opacity:1"
         d="m 168.91992,138.44922 c 31.32031,0 62.64063,0 93.96094,0 -2.5,-2.5 -5,-5 -7.5,-7.5 -26.32031,0 -52.64063,0 -78.96094,0 -2.5,2.5 -5,5 -7.5,7.5 z" />
      <path
         id="path4520"
         style="fill:none;stroke:#000000;stroke-width:0.264583px;stroke-linecap:butt;stroke-linejoin:miter;stroke-opacity:1"
         d="m 266.41992,138.44922 c 26.32031,0 52.64063,0 78.96094,0 2.5,-2.5 5,-5 7.5,-7.5 -31.32031,0 -62.64063,0 -93.96094,0 2.5,2.5 5,5 7.5,7.5 z" />
      <path
         id="path4522"
         style="fill:none;stroke:#000000;stroke-width:0.264583px;stroke-linecap:butt;stroke-linejoin:miter;stroke-opacity:1"
         d="m 348.91992,138.44922 c 15.24349,0 30.48698,0 45.73047,0 0,-2.5 0,-5 0,-7.5 -12.74349,0 -25.48698,0 -38.23047,0 -2.5,2.5 -5,5 -7.5,7.5 z" />
      <path
         id="path4524"
         style="fill:none;stroke:#000000;stroke-width:0.264583px;stroke-linecap:butt;stroke-linejoin:miter;stroke-opacity:1"
         d="m 37.150391,138.44922 c 15.243489,0 30.486979,0 45.730468,0 -2.5,-2.5 -5,-5 -7.5,-7.5 -12.743489,0 -25.486979,0 -38.230468,0 0,2.5 0,5 0,7.5 z" />
      <path
         id="path4528"
         style="fill:none;stroke:#000000;stroke-width:0.264583px;stroke-linecap:butt;stroke-linejoin:miter;stroke-opacity:1"
         d="m 78.919922,148.44922 c 31.320308,0 62.640628,0 93.960938,0 -2.5,-2.5 -5,-5 -7.5,-7.5 -26.32031,0 -52.64063,0 -78.960938,0 -2.5,2.5 -5,5 -7.5,7.5 z" />
      <path
         id="path4530"
         style="fill:none;stroke:#000000;stroke-width:0.264583px;stroke-linecap:butt;stroke-linejoin:miter;stroke-opacity:1"
         d="m 176.41992,148.44922 c 26.32031,0 52.64063,0 78.96094,0 2.5,-2.5 5,-5 7.5,-7.5 -31.32031,0 -62.64063,0 -93.96094,0 2.5,2.5 5,5 7.5,7.5 z" />
      <path
         id="path4532"
         style="fill:none;stroke:#000000;stroke-width:0.264583px;stroke-linecap:butt;stroke-linejoin:miter;stroke-opacity:1"
         d="m 258.91992,148.44922 c 31.32031,0 62.64063,0 93.96094,0 -2.5,-2.5 -5,-5 -7.5,-7.5 -26.32031,0 -52.64063,0 -78.96094,0 -2.5,2.5 -5,5 -7.5,7.5 z" />
      <path
         id="path4534"
         style="fill:none;stroke:#000000;stroke-width:0.264583px;stroke-linecap:butt;stroke-linejoin:miter;stroke-opacity:1"
         d="m 356.41992,148.44922 c 12.74349,0 25.48698,0 38.23047,0 0,-2.5 0,-5 0,-7.5 -15.24349,0 -30.48698,0 -45.73047,0 2.5,2.5 5,5 7.5,7.5 z" />
      <path
         id="path4536"
         style="fill:none;stroke:#000000;stroke-width:0.264583px;stroke-linecap:butt;stroke-linejoin:miter;stroke-opacity:1"
         d="m 37.150391,148.44922 c 12.743489,0 25.486979,0 38.230468,0 2.5,-2.5 5,-5 7.5,-7.5 -15.243489,0 -30.486979,0 -45.730468,0 0,2.5 0,5 0,7.5 z" />
      <path
         id="path4540"
         style="fill:none;stroke:#000000;stroke-width:0.264583px;stroke-linecap:butt;stroke-linejoin:miter;stroke-opacity:1"
         d="m 86.419922,158.44922 c 26.320308,0 52.640628,0 78.960938,0 2.5,-2.5 5,-5 7.5,-7.5 -31.32031,0 -62.64063,0 -93.960938,0 2.5,2.5 5,5 7.5,7.5 z" />
      <path
         id="path4542"
         style="fill:none;stroke:#000000;stroke-width:0.264583px;stroke-linecap:butt;stroke-linejoin:miter;stroke-opacity:1"
         d="m 168.91992,158.44922 c 31.32031,0 62.64063,0 93.96094,0 -2.5,-2.5 -5,-5 -7.5,-7.5 -26.32031,0 -52.64063,0 -78.96094,0 -2.5,2.5 -5,5 -7.5,7.5 z" />
      <path
         id="path4544"
         style="fill:none;stroke:#000000;stroke-width:0.264583px;stroke-linecap:butt;stroke-linejoin:miter;stroke-opacity:1"
         d="m 266.41992,158.44922 c 26.32031,0 52.64063,0 78.96094,0 2.5,-2.5 5,-5 7.5,-7.5 -31.32031,0 -62.64063,0 -93.96094,0 2.5,2.5 5,5 7.5,7.5 z" />
      <path
         id="path4546"
         style="fill:none;stroke:#000000;stroke-width:0.264583px;stroke-linecap:butt;stroke-linejoin:miter;stroke-opacity:1"
         d="m 348.91992,158.44922 c 15.24349,0 30.48698,0 45.73047,0 0,-2.5 0,-5 0,-7.5 -12.74349,0 -25.48698,0 -38.23047,0 -2.5,2.5 -5,5 -7.5,7.5 z" />
      <path
         id="path4548"
         style="fill:none;stroke:#000000;stroke-width:0.264583px;stroke-linecap:butt;stroke-linejoin:miter;stroke-opacity:1"
         d="m 37.150391,158.44922 c 15.243489,0 30.486979,0 45.730468,0 -2.5,-2.5 -5,-5 -7.5,-7.5 -12.743489,0 -25.486979,0 -38.230468,0 0,2.5 0,5 0,7.5 z" />
      <path
         id="path4552"
         style="fill:none;stroke:#000000;stroke-width:0.264583px;stroke-linecap:butt;stroke-linejoin:miter;stroke-opacity:1"
         d="m 78.919922,168.44922 c 31.320308,0 62.640628,0 93.960938,0 -2.5,-2.5 -5,-5 -7.5,-7.5 -26.32031,0 -52.64063,0 -78.960938,0 -2.5,2.5 -5,5 -7.5,7.5 z" />
      <path
         id="path4554"
         style="fill:none;stroke:#000000;stroke-width:0.264583px;stroke-linecap:butt;stroke-linejoin:miter;stroke-opacity:1"
         d="m 176.41992,168.44922 c 26.32031,0 52.64063,0 78.96094,0 2.5,-2.5 5,-5 7.5,-7.5 -31.32031,0 -62.64063,0 -93.96094,0 2.5,2.5 5,5 7.5,7.5 z" />
      <path
         id="path4556"
         style="fill:none;stroke:#000000;stroke-width:0.264583px;stroke-linecap:butt;stroke-linejoin:miter;stroke-opacity:1"
         d="m 258.91992,168.44922 c 31.32031,0 62.64063,0 93.96094,0 -2.5,-2.5 -5,-5 -7.5,-7.5 -26.32031,0 -52.64063,0 -78.96094,0 -2.5,2.5 -5,5 -7.5,7.5 z" />
      <path
         id="path4558"
         style="fill:none;stroke:#000000;stroke-width:0.264583px;stroke-linecap:butt;stroke-linejoin:miter;stroke-opacity:1"
         d="m 356.41992,168.44922 c 12.74349,0 25.48698,0 38.23047,0 0,-2.5 0,-5 0,-7.5 -15.24349,0 -30.48698,0 -45.73047,0 2.5,2.5 5,5 7.5,7.5 z" />
      <path
         id="path4560"
         style="fill:none;stroke:#000000;stroke-width:0.264583px;stroke-linecap:butt;stroke-linejoin:miter;stroke-opacity:1"
         d="m 37.150391,168.44922 c 12.743489,0 25.486979,0 38.230468,0 2.5,-2.5 5,-5 7.5,-7.5 -15.243489,0 -30.486979,0 -45.730468,0 0,2.5 0,5 0,7.5 z" />
      <path
         id="path4564"
         style="fill:none;stroke:#000000;stroke-width:0.264583px;stroke-linecap:butt;stroke-linejoin:miter;stroke-opacity:1"
         d="m 86.419922,178.44922 c 26.320308,0 52.640628,0 78.960938,0 2.5,-2.5 5,-5 7.5,-7.5 -31.32031,0 -62.64063,0 -93.960938,0 2.5,2.5 5,5 7.5,7.5 z" />
      <path
         id="path4566"
         style="fill:none;stroke:#000000;stroke-width:0.264583px;stroke-linecap:butt;stroke-linejoin:miter;stroke-opacity:1"
         d="m 168.91992,178.44922 c 31.32031,0 62.64063,0 93.96094,0 -2.5,-2.5 -5,-5 -7.5,-7.5 -26.32031,0 -52.64063,0 -78.96094,0 -2.5,2.5 -5,5 -7.5,7.5 z" />
      <path
         id="path4568"
         style="fill:none;stroke:#000000;stroke-width:0.264583px;stroke-linecap:butt;stroke-linejoin:miter;stroke-opacity:1"
         d="m 266.41992,178.44922 c 26.32031,0 52.64063,0 78.96094,0 2.5,-2.5 5,-5 7.5,-7.5 -31.32031,0 -62.64063,0 -93.96094,0 2.5,2.5 5,5 7.5,7.5 z" />
      <path
         id="path4570"
         style="fill:none;stroke:#000000;stroke-width:0.264583px;stroke-linecap:butt;stroke-linejoin:miter;stroke-opacity:1"
         d="m 348.91992,178.44922 c 15.24349,0 30.48698,0 45.73047,0 0,-2.5 0,-5 0,-7.5 -12.74349,0 -25.48698,0 -38.23047,0 -2.5,2.5 -5,5 -7.5,7.5 z" />
      <path
         id="path4572"
         style="fill:none;stroke:#000000;stroke-width:0.264583px;stroke-linecap:butt;stroke-linejoin:miter;stroke-opacity:1"
         d="m 37.150391,178.44922 c 15.243489,0 30.486979,0 45.730468,0 -2.5,-2.5 -5,-5 -7.5,-7.5 -12.743489,0 -25.486979,0 -38.230468,0 0,2.5 0,5 0,7.5 z" />
      <path
         id="path4576"
         style="fill:none;stroke:#000000;stroke-width:0.264583px;stroke-linecap:butt;stroke-linejoin:miter;stroke-opacity:1"
         d="m 78.919922,188.44922 c 31.320308,0 62.640628,0 93.960938,0 -2.5,-2.5 -5,-5 -7.5,-7.5 -26.32031,0 -52.64063,0 -78.960938,0 -2.5,2.5 -5,5 -7.5,7.5 z" />
      <path
         id="path4578"
         style="fill:none;stroke:#000000;stroke-width:0.264583px;stroke-linecap:butt;stroke-linejoin:miter;stroke-opacity:1"
         d="m 176.41992,188.44922 c 26.32031,0 52.64063,0 78.96094,0 2.5,-2.5 5,-5 7.5,-7.5 -31.32031,0 -62.64063,0 -93.96094,0 2.5,2.5 5,5 7.5,7.5 z" />
      <path
         id="path4580"
         style="fill:none;stroke:#000000;stroke-width:0.264583px;stroke-linecap:butt;stroke-linejoin:miter;stroke-opacity:1"
         d="m 258.91992,188.44922 c 31.32031,0 62.64063,0 93.96094,0 -2.5,-2.5 -5,-5 -7.5,-7.5 -26.32031,0 -52.64063,0 -78.96094,0 -2.5,2.5 -5,5 -7.5,7.5 z" />
      <path
         id="path4582"
         style="fill:none;stroke:#000000;stroke-width:0.264583px;stroke-linecap:butt;stroke-linejoin:miter;stroke-opacity:1"
         d="m 356.41992,188.44922 c 12.74349,0 25.48698,0 38.23047,0 0,-2.5 0,-5 0,-7.5 -15.24349,0 -30.48698,0 -45.73047,0 2.5,2.5 5,5 7.5,7.5 z" />
      <path
         id="path4584"
         style="fill:none;stroke:#000000;stroke-width:0.264583px;stroke-linecap:butt;stroke-linejoin:miter;stroke-opacity:1"
         d="m 37.150391,188.44922 c 12.743489,0 25.486979,0 38.230468,0 2.5,-2.5 5,-5 7.5,-7.5 -15.243489,0 -30.486979,0 -45.730468,0 0,2.5 0,5 0,7.5 z" />
      <path
         id="path4588"
         style="fill:none;stroke:#000000;stroke-width:0.264583px;stroke-linecap:butt;stroke-linejoin:miter;stroke-opacity:1"
         d="m 86.419922,198.44922 c 26.320308,0 52.640628,0 78.960938,0 2.5,-2.5 5,-5 7.5,-7.5 -31.32031,0 -62.64063,0 -93.960938,0 2.5,2.5 5,5 7.5,7.5 z" />
      <path
         id="path4590"
         style="fill:none;stroke:#000000;stroke-width:0.264583px;stroke-linecap:butt;stroke-linejoin:miter;stroke-opacity:1"
         d="m 168.91992,198.44922 c 31.32031,0 62.64063,0 93.96094,0 -2.5,-2.5 -5,-5 -7.5,-7.5 -26.32031,0 -52.64063,0 -78.96094,0 -2.5,2.5 -5,5 -7.5,7.5 z" />
      <path
         id="path4592"
         style="fill:none;stroke:#000000;stroke-width:0.264583px;stroke-linecap:butt;stroke-linejoin:miter;stroke-opacity:1"
         d="m 266.41992,198.44922 c 26.32031,0 52.64063,0 78.96094,0 2.5,-2.5 5,-5 7.5,-7.5 -31.32031,0 -62.64063,0 -93.96094,0 2.5,2.5 5,5 7.5,7.5 z" />
      <path
         id="path4594"
         style="fill:none;stroke:#000000;stroke-width:0.264583px;stroke-linecap:butt;stroke-linejoin:miter;stroke-opacity:1"
         d="m 348.91992,198.44922 c 15.24349,0 30.48698,0 45.73047,0 0,-2.5 0,-5 0,-7.5 -12.74349,0 -25.48698,0 -38.23047,0 -2.5,2.5 -5,5 -7.5,7.5 z" />
      <path
         id="path4596"
         style="fill:none;stroke:#000000;stroke-width:0.264583px;stroke-linecap:butt;stroke-linejoin:miter;stroke-opacity:1"
         d="m 37.150391,198.44922 c 15.243489,0 30.486979,0 45.730468,0 -2.5,-2.5 -5,-5 -7.5,-7.5 -12.743489,0 -25.486979,0 -38.230468,0 0,2.5 0,5 0,7.5 z" />
      <path
         id="path4600"
         style="fill:none;stroke:#000000;stroke-width:0.264583px;stroke-linecap:butt;stroke-linejoin:miter;stroke-opacity:1"
         d="m 78.919922,208.44922 c 31.320308,0 62.640628,0 93.960938,0 -2.5,-2.5 -5,-5 -7.5,-7.5 -26.32031,0 -52.64063,0 -78.960938,0 -2.5,2.5 -5,5 -7.5,7.5 z" />
      <path
         id="path4602"
         style="fill:none;stroke:#000000;stroke-width:0.264583px;stroke-linecap:butt;stroke-linejoin:miter;stroke-opacity:1"
         d="m 176.41992,208.44922 c 26.32031,0 52.64063,0 78.96094,0 2.5,-2.5 5,-5 7.5,-7.5 -31.32031,0 -62.64063,0 -93.96094,0 2.5,2.5 5,5 7.5,7.5 z" />
      <path
         id="path4604"
         style="fill:none;stroke:#000000;stroke-width:0.264583px;stroke-linecap:butt;stroke-linejoin:miter;stroke-opacity:1"
         d="m 258.91992,208.44922 c 31.32031,0 62.64063,0 93.96094,0 -2.5,-2.5 -5,-5 -7.5,-7.5 -26.32031,0 -52.64063,0 -78.96094,0 -2.5,2.5 -5,5 -7.5,7.5 z" />
      <path
         id="path4606"
         style="fill:none;stroke:#000000;stroke-width:0.264583px;stroke-linecap:butt;stroke-linejoin:miter;stroke-opacity:1"
         d="m 356.41992,208.44922 c 12.74349,0 25.48698,0 38.23047,0 0,-2.5 0,-5 0,-7.5 -15.24349,0 -30.48698,0 -45.73047,0 2.5,2.5 5,5 7.5,7.5 z" />
      <path
         id="path4608"
         style="fill:none;stroke:#000000;stroke-width:0.264583px;stroke-linecap:butt;stroke-linejoin:miter;stroke-opacity:1"
         d="m 37.150391,208.44922 c 12.743489,0 25.486979,0 38.230468,0 2.5,-2.5 5,-5 7.5,-7.5 -15.243489,0 -30.486979,0 -45.730468,0 0,2.5 0,5 0,7.5 z" />
      <path
         id="path4612"
         style="fill:none;stroke:#000000;stroke-width:0.264583px;stroke-linecap:butt;stroke-linejoin:miter;stroke-opacity:1"
         d="m 86.419922,218.44922 c 26.320308,0 52.640628,0 78.960938,0 2.5,-2.5 5,-5 7.5,-7.5 -31.32031,0 -62.64063,0 -93.960938,0 2.5,2.5 5,5 7.5,7.5 z" />
      <path
         id="path4614"
         style="fill:none;stroke:#000000;stroke-width:0.264583px;stroke-linecap:butt;stroke-linejoin:miter;stroke-opacity:1"
         d="m 168.91992,218.44922 c 31.32031,0 62.64063,0 93.96094,0 -2.5,-2.5 -5,-5 -7.5,-7.5 -26.32031,0 -52.64063,0 -78.96094,0 -2.5,2.5 -5,5 -7.5,7.5 z" />
      <path
         id="path4616"
         style="fill:none;stroke:#000000;stroke-width:0.264583px;stroke-linecap:butt;stroke-linejoin:miter;stroke-opacity:1"
         d="m 266.41992,218.44922 c 26.32031,0 52.64063,0 78.96094,0 2.5,-2.5 5,-5 7.5,-7.5 -31.32031,0 -62.64063,0 -93.96094,0 2.5,2.5 5,5 7.5,7.5 z" />
      <path
         id="path4618"
         style="fill:none;stroke:#000000;stroke-width:0.264583px;stroke-linecap:butt;stroke-linejoin:miter;stroke-opacity:1"
         d="m 348.91992,218.44922 c 15.24349,0 30.48698,0 45.73047,0 0,-2.5 0,-5 0,-7.5 -12.74349,0 -25.48698,0 -38.23047,0 -2.5,2.5 -5,5 -7.5,7.5 z" />
      <path
         id="path4620"
         style="fill:none;stroke:#000000;stroke-width:0.264583px;stroke-linecap:butt;stroke-linejoin:miter;stroke-opacity:1"
         d="m 37.150391,218.44922 c 15.243489,0 30.486979,0 45.730468,0 -2.5,-2.5 -5,-5 -7.5,-7.5 -12.743489,0 -25.486979,0 -38.230468,0 0,2.5 0,5 0,7.5 z" />
      <path
         id="path4624"
         style="fill:none;stroke:#000000;stroke-width:0.264583px;stroke-linecap:butt;stroke-linejoin:miter;stroke-opacity:1"
         d="m 78.919922,228.44922 c 31.320308,0 62.640628,0 93.960938,0 -2.5,-2.5 -5,-5 -7.5,-7.5 -26.32031,0 -52.64063,0 -78.960938,0 -2.5,2.5 -5,5 -7.5,7.5 z" />
      <path
         id="path4626"
         style="fill:none;stroke:#000000;stroke-width:0.264583px;stroke-linecap:butt;stroke-linejoin:miter;stroke-opacity:1"
         d="m 176.41992,228.44922 c 26.32031,0 52.64063,0 78.96094,0 2.5,-2.5 5,-5 7.5,-7.5 -31.32031,0 -62.64063,0 -93.96094,0 2.5,2.5 5,5 7.5,7.5 z" />
      <path
         id="path4628"
         style="fill:none;stroke:#000000;stroke-width:0.264583px;stroke-linecap:butt;stroke-linejoin:miter;stroke-opacity:1"
         d="m 258.91992,228.44922 c 31.32031,0 62.64063,0 93.96094,0 -2.5,-2.5 -5,-5 -7.5,-7.5 -26.32031,0 -52.64063,0 -78.96094,0 -2.5,2.5 -5,5 -7.5,7.5 z" />
      <path
         id="path4630"
         style="fill:none;stroke:#000000;stroke-width:0.264583px;stroke-linecap:butt;stroke-linejoin:miter;stroke-opacity:1"
         d="m 356.41992,228.44922 c 12.74349,0 25.48698,0 38.23047,0 0,-2.5 0,-5 0,-7.5 -15.24349,0 -30.48698,0 -45.73047,0 2.5,2.5 5,5 7.5,7.5 z" />
      <path
         id="path4632"
         style="fill:none;stroke:#000000;stroke-width:0.264583px;stroke-linecap:butt;stroke-linejoin:miter;stroke-opacity:1"
         d="m 37.150391,228.44922 c 12.743489,0 25.486979,0 38.230468,0 2.5,-2.5 5,-5 7.5,-7.5 -15.243489,0 -30.486979,0 -45.730468,0 0,2.5 0,5 0,7.5 z" />
      <path
         id="path4636"
         style="fill:none;stroke:#000000;stroke-width:0.264583px;stroke-linecap:butt;stroke-linejoin:miter;stroke-opacity:1"
         d="m 86.419922,238.44922 c 26.320308,0 52.640628,0 78.960938,0 2.5,-2.5 5,-5 7.5,-7.5 -31.32031,0 -62.64063,0 -93.960938,0 2.5,2.5 5,5 7.5,7.5 z" />
      <path
         id="path4638"
         style="fill:none;stroke:#000000;stroke-width:0.264583px;stroke-linecap:butt;stroke-linejoin:miter;stroke-opacity:1"
         d="m 168.91992,238.44922 c 31.32031,0 62.64063,0 93.96094,0 -2.5,-2.5 -5,-5 -7.5,-7.5 -26.32031,0 -52.64063,0 -78.96094,0 -2.5,2.5 -5,5 -7.5,7.5 z" />
      <path
         id="path4640"
         style="fill:none;stroke:#000000;stroke-width:0.264583px;stroke-linecap:butt;stroke-linejoin:miter;stroke-opacity:1"
         d="m 266.41992,238.44922 c 26.32031,0 52.64063,0 78.96094,0 2.5,-2.5 5,-5 7.5,-7.5 -31.32031,0 -62.64063,0 -93.96094,0 2.5,2.5 5,5 7.5,7.5 z" />
      <path
         id="path4642"
         style="fill:none;stroke:#000000;stroke-width:0.264583px;stroke-linecap:butt;stroke-linejoin:miter;stroke-opacity:1"
         d="m 348.91992,238.44922 c 15.24349,0 30.48698,0 45.73047,0 0,-2.5 0,-5 0,-7.5 -12.74349,0 -25.48698,0 -38.23047,0 -2.5,2.5 -5,5 -7.5,7.5 z" />
      <path
         id="path4644"
         style="fill:none;stroke:#000000;stroke-width:0.264583px;stroke-linecap:butt;stroke-linejoin:miter;stroke-opacity:1"
         d="m 37.150391,238.44922 c 15.243489,0 30.486979,0 45.730468,0 -2.5,-2.5 -5,-5 -7.5,-7.5 -12.743489,0 -25.486979,0 -38.230468,0 0,2.5 0,5 0,7.5 z" />
      <path
         id="path4648"
         style="fill:none;stroke:#000000;stroke-width:0.264583px;stroke-linecap:butt;stroke-linejoin:miter;stroke-opacity:1"
         d="m 78.919922,248.44922 c 31.320308,0 62.640628,0 93.960938,0 -2.5,-2.5 -5,-5 -7.5,-7.5 -26.32031,0 -52.64063,0 -78.960938,0 -2.5,2.5 -5,5 -7.5,7.5 z" />
      <path
         id="path4650"
         style="fill:none;stroke:#000000;stroke-width:0.264583px;stroke-linecap:butt;stroke-linejoin:miter;stroke-opacity:1"
         d="m 176.41992,248.44922 c 26.32031,0 52.64063,0 78.96094,0 2.5,-2.5 5,-5 7.5,-7.5 -31.32031,0 -62.64063,0 -93.96094,0 2.5,2.5 5,5 7.5,7.5 z" />
      <path
         id="path4652"
         style="fill:none;stroke:#000000;stroke-width:0.264583px;stroke-linecap:butt;stroke-linejoin:miter;stroke-opacity:1"
         d="m 258.91992,248.44922 c 31.32031,0 62.64063,0 93.96094,0 -2.5,-2.5 -5,-5 -7.5,-7.5 -26.32031,0 -52.64063,0 -78.96094,0 -2.5,2.5 -5,5 -7.5,7.5 z" />
      <path
         id="path4654"
         style="fill:none;stroke:#000000;stroke-width:0.264583px;stroke-linecap:butt;stroke-linejoin:miter;stroke-opacity:1"
         d="m 356.41992,248.44922 c 12.74349,0 25.48698,0 38.23047,0 0,-2.5 0,-5 0,-7.5 -15.24349,0 -30.48698,0 -45.73047,0 2.5,2.5 5,5 7.5,7.5 z" />
      <path
         id="path4656"
         style="fill:none;stroke:#000000;stroke-width:0.264583px;stroke-linecap:butt;stroke-linejoin:miter;stroke-opacity:1"
         d="m 37.150391,248.44922 c 12.743489,0 25.486979,0 38.230468,0 2.5,-2.5 5,-5 7.5,-7.5 -15.243489,0 -30.486979,0 -45.730468,0 0,2.5 0,5 0,7.5 z" />
      <path
         id="path4660"
         style="fill:none;stroke:#000000;stroke-width:0.264583px;stroke-linecap:butt;stroke-linejoin:miter;stroke-opacity:1"
         d="m 86.419922,258.44922 c 26.320308,0 52.640628,0 78.960938,0 2.5,-2.5 5,-5 7.5,-7.5 -31.32031,0 -62.64063,0 -93.960938,0 2.5,2.5 5,5 7.5,7.5 z" />
      <path
         id="path4662"
         style="fill:none;stroke:#000000;stroke-width:0.264583px;stroke-linecap:butt;stroke-linejoin:miter;stroke-opacity:1"
         d="m 168.91992,258.44922 c 31.32031,0 62.64063,0 93.96094,0 -2.5,-2.5 -5,-5 -7.5,-7.5 -26.32031,0 -52.64063,0 -78.96094,0 -2.5,2.5 -5,5 -7.5,7.5 z" />
      <path
         id="path4664"
         style="fill:none;stroke:#000000;stroke-width:0.264583px;stroke-linecap:butt;stroke-linejoin:miter;stroke-opacity:1"
         d="m 266.41992,258.44922 c 26.32031,0 52.64063,0 78.96094,0 2.5,-2.5 5,-5 7.5,-7.5 -31.32031,0 -62.64063,0 -93.96094,0 2.5,2.5 5,5 7.5,7.5 z" />
      <path
         id="path4666"
         style="fill:none;stroke:#000000;stroke-width:0.264583px;stroke-linecap:butt;stroke-linejoin:miter;stroke-opacity:1"
         d="m 348.91992,258.44922 c 15.24349,0 30.48698,0 45.73047,0 0,-2.5 0,-5 0,-7.5 -12.74349,0 -25.48698,0 -38.23047,0 -2.5,2.5 -5,5 -7.5,7.5 z" />
      <path
         id="path4668"
         style="fill:none;stroke:#000000;stroke-width:0.264583px;stroke-linecap:butt;stroke-linejoin:miter;stroke-opacity:1"
         d="m 37.150391,258.44922 c 15.243489,0 30.486979,0 45.730468,0 -2.5,-2.5 -5,-5 -7.5,-7.5 -12.743489,0 -25.486979,0 -38.230468,0 0,2.5 0,5 0,7.5 z" />
      <path
         id="path4672"
         style="fill:none;stroke:#000000;stroke-width:0.264583px;stroke-linecap:butt;stroke-linejoin:miter;stroke-opacity:1"
         d="m 78.919922,268.44922 c 31.320308,0 62.640628,0 93.960938,0 -2.5,-2.5 -5,-5 -7.5,-7.5 -26.32031,0 -52.64063,0 -78.960938,0 -2.5,2.5 -5,5 -7.5,7.5 z" />
      <path
         id="path4674"
         style="fill:none;stroke:#000000;stroke-width:0.264583px;stroke-linecap:butt;stroke-linejoin:miter;stroke-opacity:1"
         d="m 176.41992,268.44922 c 26.32031,0 52.64063,0 78.96094,0 2.5,-2.5 5,-5 7.5,-7.5 -31.32031,0 -62.64063,0 -93.96094,0 2.5,2.5 5,5 7.5,7.5 z" />
      <path
         id="path4676"
         style="fill:none;stroke:#000000;stroke-width:0.264583px;stroke-linecap:butt;stroke-linejoin:miter;stroke-opacity:1"
         d="m 258.91992,268.44922 c 31.32031,0 62.64063,0 93.96094,0 -2.5,-2.5 -5,-5 -7.5,-7.5 -26.32031,0 -52.64063,0 -78.96094,0 -2.5,2.5 -5,5 -7.5,7.5 z" />
      <path
         id="path4678"
         style="fill:none;stroke:#000000;stroke-width:0.264583px;stroke-linecap:butt;stroke-linejoin:miter;stroke-opacity:1"
         d="m 356.41992,268.44922 c 12.74349,0 25.48698,0 38.23047,0 0,-2.5 0,-5 0,-7.5 -15.24349,0 -30.48698,0 -45.73047,0 2.5,2.5 5,5 7.5,7.5 z" />
      <path
         id="path4680"
         style="fill:none;stroke:#000000;stroke-width:0.264583px;stroke-linecap:butt;stroke-linejoin:miter;stroke-opacity:1"
         d="m 37.150391,268.44922 c 12.743489,0 25.486979,0 38.230468,0 2.5,-2.5 5,-5 7.5,-7.5 -15.243489,0 -30.486979,0 -45.730468,0 0,2.5 0,5 0,7.5 z" />
      <path
         id="path5637"
         style="fill:none;stroke:#000000;stroke-width:0.264583px;stroke-linecap:butt;stroke-linejoin:miter;stroke-opacity:1"
         d="m 86.419922,278.44929 c 26.320308,0 52.640628,0 78.960938,0 2.5,-2.5 5,-5 7.5,-7.5 -31.32031,0 -62.64063,0 -93.960938,0 2.5,2.5 5,5 7.5,7.5 z" />
      <path
         id="path5639"
         style="fill:none;stroke:#000000;stroke-width:0.264583px;stroke-linecap:butt;stroke-linejoin:miter;stroke-opacity:1"
         d="m 168.91992,278.44929 c 31.32031,0 62.64063,0 93.96094,0 -2.5,-2.5 -5,-5 -7.5,-7.5 -26.32031,0 -52.64063,0 -78.96094,0 -2.5,2.5 -5,5 -7.5,7.5 z" />
      <path
         id="path5641"
         style="fill:none;stroke:#000000;stroke-width:0.264583px;stroke-linecap:butt;stroke-linejoin:miter;stroke-opacity:1"
         d="m 266.41992,278.44929 c 26.32031,0 52.64063,0 78.96094,0 2.5,-2.5 5,-5 7.5,-7.5 -31.32031,0 -62.64063,0 -93.96094,0 2.5,2.5 5,5 7.5,7.5 z" />
      <path
         id="path5643"
         style="fill:none;stroke:#000000;stroke-width:0.264583px;stroke-linecap:butt;stroke-linejoin:miter;stroke-opacity:1"
         d="m 348.91992,278.44929 c 15.24349,0 30.48698,0 45.73047,0 0,-2.5 0,-5 0,-7.5 -12.74349,0 -25.48698,0 -38.23047,0 -2.5,2.5 -5,5 -7.5,7.5 z" />
      <path
         id="path5645"
         style="fill:none;stroke:#000000;stroke-width:0.264583px;stroke-linecap:butt;stroke-linejoin:miter;stroke-opacity:1"
         d="m 37.150391,278.44929 c 15.243489,0 30.486979,0 45.730468,0 -2.5,-2.5 -5,-5 -7.5,-7.5 -12.743489,0 -25.486979,0 -38.230468,0 0,2.5 0,5 0,7.5 z" />
      <path
         id="path5647"
         style="fill:none;stroke:#000000;stroke-width:0.264583px;stroke-linecap:butt;stroke-linejoin:miter;stroke-opacity:1"
         d="m 78.919922,288.44929 c 31.320308,0 62.640628,0 93.960938,0 -2.5,-2.5 -5,-5 -7.5,-7.5 -26.32031,0 -52.64063,0 -78.960938,0 -2.5,2.5 -5,5 -7.5,7.5 z" />
      <path
         id="path5649"
         style="fill:none;stroke:#000000;stroke-width:0.264583px;stroke-linecap:butt;stroke-linejoin:miter;stroke-opacity:1"
         d="m 176.41992,288.44929 c 26.32031,0 52.64063,0 78.96094,0 2.5,-2.5 5,-5 7.5,-7.5 -31.32031,0 -62.64063,0 -93.96094,0 2.5,2.5 5,5 7.5,7.5 z" />
      <path
         id="path5651"
         style="fill:none;stroke:#000000;stroke-width:0.264583px;stroke-linecap:butt;stroke-linejoin:miter;stroke-opacity:1"
         d="m 258.91992,288.44929 c 31.32031,0 62.64063,0 93.96094,0 -2.5,-2.5 -5,-5 -7.5,-7.5 -26.32031,0 -52.64063,0 -78.96094,0 -2.5,2.5 -5,5 -7.5,7.5 z" />
      <path
         id="path5653"
         style="fill:none;stroke:#000000;stroke-width:0.264583px;stroke-linecap:butt;stroke-linejoin:miter;stroke-opacity:1"
         d="m 356.41992,288.44929 c 12.74349,0 25.48698,0 38.23047,0 0,-2.5 0,-5 0,-7.5 -15.24349,0 -30.48698,0 -45.73047,0 2.5,2.5 5,5 7.5,7.5 z" />
      <path
         id="path5655"
         style="fill:none;stroke:#000000;stroke-width:0.264583px;stroke-linecap:butt;stroke-linejoin:miter;stroke-opacity:1"
         d="m 37.150391,288.44929 c 12.743489,0 25.486979,0 38.230468,0 2.5,-2.5 5,-5 7.5,-7.5 -15.243489,0 -30.486979,0 -45.730468,0 0,2.5 0,5 0,7.5 z" />
    </g>
  </g>
</svg>
